<svg id="fg-add" width="20" height="20" viewBox="0 0 20 20" fill="none" xmlns="http://www.w3.org/2000/svg">
  <path fill-rule="evenodd" clip-rule="evenodd" d="M12 3.82538C12.4142 3.82538 12.75 4.16117 12.75 4.57538L12.75 11.25L19.4246 11.25C19.8388 11.25 20.1746 11.5858 20.1746 12C20.1746 12.4142 19.8388 12.75 19.4246 12.75L12.75 12.75L12.75 19.4246C12.75 19.8388 12.4142 20.1746 12 20.1746C11.5858 20.1746 11.25 19.8388 11.25 19.4246L11.25 12.75L4.57538 12.75C4.16117 12.75 3.82538 12.4142 3.82538 12C3.82538 11.5858 4.16117 11.25 4.57538 11.25L11.25 11.25L11.25 4.57538C11.25 4.16117 11.5858 3.82538 12 3.82538Z" fill="currentColor"/>
</svg>
